<svg id="svg" version="1.1" width="400" height="160" viewBox="0 0 400 160" xmlns="http://www.w3.org/2000/svg" xmlns:xlink="http://www.w3.org/1999/xlink" ><g id="svgg"><path id="path0" d="M0.000 5.250 L 0.000 10.500 0.553 10.500 C 1.082 10.500,1.833 9.362,1.833 8.559 C 1.833 8.331,2.883 7.168,3.095 7.162 C 3.180 7.160,3.393 6.848,3.568 6.470 C 3.903 5.744,8.273 1.167,8.631 1.167 C 8.751 1.167,8.833 0.929,8.833 0.583 L 8.833 0.000 4.417 0.000 L 0.000 0.000 0.000 5.250 M392.167 0.591 C 392.167 1.081,392.315 1.330,393.042 2.056 C 394.737 3.751,396.833 6.330,396.833 6.722 C 396.833 6.811,397.129 7.138,397.490 7.447 C 397.851 7.756,398.341 8.419,398.578 8.921 C 398.958 9.725,399.069 9.833,399.505 9.833 L 400.000 9.833 400.000 4.917 L 400.000 0.000 396.083 0.000 L 392.167 0.000 392.167 0.591 M0.000 155.333 L 0.000 160.000 4.167 160.000 L 8.333 160.000 8.333 159.523 C 8.333 159.230,8.141 158.827,7.836 158.481 C 7.562 158.171,7.337 157.860,7.336 157.792 C 7.335 157.723,7.221 157.667,7.083 157.667 C 6.946 157.667,6.833 157.610,6.833 157.542 C 6.833 157.473,6.230 156.779,5.492 156.000 C 4.754 155.221,3.952 154.321,3.708 154.000 C 3.465 153.679,2.865 153.025,2.376 152.546 C 1.886 152.066,1.406 151.448,1.310 151.171 C 1.161 150.743,1.048 150.667,0.567 150.667 L 0.000 150.667 0.000 155.333 M398.680 152.228 C 398.489 152.537,398.333 152.860,398.333 152.945 C 398.333 153.124,397.295 154.167,397.117 154.167 C 396.940 154.167,396.451 154.716,396.140 155.263 C 395.988 155.531,395.651 155.862,395.390 156.000 C 395.130 156.137,394.568 156.596,394.142 157.019 C 393.717 157.442,393.023 158.036,392.601 158.339 C 391.953 158.804,391.833 158.976,391.833 159.445 L 391.833 160.000 395.917 160.000 L 400.000 160.000 400.000 155.833 L 400.000 151.667 399.514 151.667 C 399.141 151.667,398.946 151.798,398.680 152.228 " stroke="none" fill="#ecedee" fill-rule="evenodd"></path><path id="path1" d="M12.161 0.542 C 12.156 1.048,11.850 1.667,11.605 1.667 C 11.546 1.667,11.272 1.868,10.996 2.113 C 10.721 2.359,10.140 2.677,9.706 2.821 C 9.080 3.029,8.905 3.170,8.859 3.500 C 8.785 4.034,8.335 4.453,7.556 4.711 C 7.096 4.864,6.906 5.039,6.811 5.397 C 6.643 6.031,6.030 6.667,5.588 6.667 C 5.132 6.667,4.833 6.970,4.833 7.432 C 4.833 7.980,4.290 8.542,3.564 8.745 L 2.917 8.926 2.808 10.838 C 2.748 11.890,2.602 14.362,2.482 16.333 C 2.072 23.125,2.327 146.736,2.759 150.282 C 2.855 151.069,2.908 151.157,3.353 151.254 C 4.106 151.420,4.833 152.114,4.833 152.668 C 4.833 153.058,4.921 153.159,5.337 153.251 C 6.104 153.419,6.833 154.110,6.833 154.668 C 6.833 155.057,6.921 155.160,7.334 155.250 C 7.978 155.392,8.833 156.247,8.833 156.750 C 8.833 157.047,8.951 157.166,9.325 157.248 C 10.190 157.438,10.833 158.270,10.833 159.198 L 10.833 160.000 11.667 160.000 L 12.500 160.000 12.500 159.404 C 12.500 158.963,12.376 158.691,12.024 158.362 C 11.237 157.625,10.647 157.167,10.486 157.167 C 10.402 157.167,10.333 157.092,10.333 157.000 C 10.333 156.782,9.801 156.254,9.444 156.117 C 9.290 156.058,9.077 155.820,8.972 155.588 C 8.866 155.356,8.640 155.167,8.470 155.167 C 8.299 155.167,8.073 154.977,7.968 154.746 C 7.862 154.515,7.616 154.285,7.421 154.236 C 7.226 154.187,6.982 153.926,6.881 153.657 C 6.759 153.336,6.579 153.167,6.356 153.167 C 5.896 153.167,5.131 152.427,4.921 151.780 C 4.770 151.312,4.670 151.244,4.065 151.200 C 3.526 151.160,3.331 151.058,3.149 150.716 C 2.803 150.070,2.800 9.692,3.145 9.276 C 3.271 9.124,3.590 9.000,3.854 9.000 C 4.463 9.000,5.000 8.469,5.000 7.867 C 5.000 7.274,5.274 7.000,5.867 7.000 C 6.368 7.000,7.000 6.490,7.000 6.085 C 7.000 5.685,7.527 5.183,8.161 4.979 C 8.485 4.874,8.884 4.649,9.048 4.478 C 9.212 4.307,9.444 4.167,9.564 4.167 C 9.844 4.167,10.333 3.628,10.333 3.319 C 10.333 3.082,10.873 2.792,11.667 2.601 C 12.843 2.319,13.681 0.000,12.607 0.000 C 12.222 0.000,12.166 0.069,12.161 0.542 M388.833 0.556 C 388.833 0.861,388.890 1.167,388.958 1.236 C 389.027 1.304,389.160 1.636,389.253 1.972 C 389.403 2.509,389.525 2.617,390.253 2.860 C 391.024 3.116,391.093 3.184,391.218 3.817 C 391.360 4.535,391.675 4.807,392.580 4.993 C 393.013 5.082,393.092 5.189,393.201 5.827 C 393.333 6.599,393.491 6.779,394.167 6.928 C 394.906 7.091,395.078 7.271,395.205 8.017 C 395.273 8.420,395.443 8.833,395.581 8.935 C 395.720 9.037,395.833 9.231,395.833 9.368 C 395.833 9.671,396.289 10.088,396.786 10.240 C 397.366 10.416,397.348 7.870,397.298 80.917 C 397.250 149.818,397.247 150.420,396.921 150.792 C 396.741 150.998,396.472 151.167,396.325 151.167 C 395.918 151.167,395.387 151.846,395.267 152.520 C 395.173 153.051,395.090 153.136,394.585 153.217 C 393.828 153.340,393.389 153.775,393.246 154.542 C 393.134 155.140,393.101 155.167,392.463 155.167 C 391.867 155.167,391.695 155.272,390.833 156.167 C 390.066 156.963,389.766 157.167,389.357 157.167 C 388.810 157.167,387.305 157.623,387.167 157.831 C 387.077 157.965,386.254 158.138,383.042 158.697 L 381.000 159.052 381.000 159.526 L 381.000 160.000 384.083 160.000 L 387.167 160.000 387.167 159.591 C 387.167 158.448,387.890 157.874,389.920 157.406 C 391.186 157.115,391.272 157.065,391.552 156.480 C 391.751 156.062,392.021 155.801,392.382 155.675 C 393.430 155.311,393.814 155.090,393.888 154.809 C 393.929 154.652,394.268 154.312,394.642 154.053 C 395.015 153.795,395.324 153.498,395.327 153.393 C 395.330 153.288,395.446 153.159,395.583 153.106 C 395.721 153.054,395.833 152.899,395.833 152.763 C 395.833 152.448,396.606 151.667,396.917 151.667 C 397.061 151.667,397.187 151.425,397.243 151.042 C 397.294 150.698,397.410 149.998,397.501 149.487 C 397.715 148.293,397.734 11.273,397.521 10.866 C 397.439 10.711,397.319 10.261,397.253 9.867 C 397.148 9.234,397.061 9.122,396.494 8.895 C 395.812 8.622,395.333 8.055,395.333 7.519 C 395.333 6.938,395.139 6.667,394.724 6.667 C 394.227 6.667,393.543 5.963,393.362 5.265 C 393.283 4.958,393.101 4.726,392.913 4.690 C 392.337 4.579,391.847 4.143,391.556 3.483 C 391.349 3.013,391.073 2.737,390.566 2.492 C 389.794 2.118,389.333 1.380,389.333 0.516 C 389.333 0.168,389.252 0.000,389.083 0.000 C 388.911 0.000,388.833 0.173,388.833 0.556 M109.500 4.509 C 67.563 4.576,31.863 4.683,30.167 4.747 C 28.471 4.811,25.133 4.929,22.750 5.010 C 11.768 5.379,10.833 5.445,10.833 5.854 C 10.833 5.946,10.290 6.574,9.625 7.250 C 8.836 8.053,8.307 8.757,8.101 9.281 C 7.927 9.722,7.615 10.312,7.409 10.592 C 6.912 11.265,6.505 13.360,6.327 16.167 C 6.248 17.404,6.110 19.129,6.020 20.000 C 5.889 21.262,5.568 34.175,5.643 35.167 C 5.702 35.947,5.638 37.578,5.542 37.733 C 5.435 37.906,5.139 44.564,5.208 45.250 C 5.226 45.433,5.219 46.783,5.192 48.250 C 5.164 49.717,5.145 52.379,5.149 54.167 C 5.153 55.954,5.152 58.204,5.147 59.167 C 5.141 60.129,5.142 71.829,5.148 85.167 C 5.163 116.884,5.163 116.567,5.150 119.083 C 5.139 121.180,5.376 128.381,5.567 131.714 C 5.618 132.611,5.701 134.636,5.751 136.214 C 5.965 142.915,6.585 148.753,7.126 149.158 C 7.353 149.328,7.833 150.356,7.833 150.674 C 7.833 150.846,8.415 151.576,9.125 152.296 C 10.620 153.812,11.286 154.055,14.448 154.236 C 15.382 154.290,16.343 154.409,16.584 154.500 C 16.825 154.592,17.523 154.669,18.136 154.673 C 18.786 154.676,19.424 154.778,19.667 154.917 C 19.911 155.057,20.550 155.157,21.213 155.161 C 21.834 155.164,23.447 155.285,24.796 155.431 C 26.146 155.576,28.787 155.719,30.667 155.749 C 32.546 155.780,37.796 155.867,42.333 155.944 C 73.108 156.464,373.300 156.038,375.833 155.471 C 376.246 155.378,377.408 155.253,378.417 155.192 C 379.425 155.131,380.414 154.988,380.614 154.874 C 380.814 154.760,381.331 154.667,381.762 154.667 C 382.488 154.667,385.381 154.366,388.039 154.014 C 389.382 153.836,390.448 153.351,391.307 152.525 C 391.656 152.190,392.211 151.732,392.541 151.505 C 393.859 150.602,394.181 149.384,394.665 143.469 C 394.745 142.490,394.884 141.551,394.974 141.383 C 395.938 139.581,395.511 24.148,394.516 17.667 C 394.410 16.979,394.254 15.967,394.168 15.417 C 394.082 14.867,393.965 13.929,393.907 13.333 C 393.694 11.114,392.960 8.999,392.279 8.641 C 392.080 8.536,391.879 8.402,391.833 8.344 C 391.787 8.286,391.300 8.010,390.750 7.730 C 390.200 7.451,389.525 7.102,389.250 6.955 C 387.902 6.233,385.510 6.070,369.917 5.640 C 342.494 4.885,331.777 4.808,202.833 4.437 C 193.438 4.410,151.438 4.443,109.500 4.509 M205.167 21.420 C 209.505 21.846,212.200 22.181,213.284 22.430 C 213.853 22.560,214.468 22.667,214.651 22.667 C 214.834 22.667,215.306 22.882,215.700 23.145 C 216.221 23.493,216.849 23.700,218.000 23.901 C 219.718 24.201,220.987 24.593,221.250 24.905 C 221.600 25.320,223.184 25.936,224.680 26.238 C 224.916 26.286,225.314 26.515,225.563 26.746 C 225.813 26.977,226.088 27.167,226.175 27.167 C 226.262 27.167,226.333 27.237,226.333 27.322 C 226.333 27.408,226.502 27.526,226.708 27.586 C 227.441 27.797,229.199 28.724,229.283 28.944 C 229.331 29.066,229.449 29.167,229.546 29.167 C 229.644 29.167,229.842 29.265,229.987 29.385 C 230.132 29.506,230.588 29.745,231.000 29.916 C 231.412 30.088,232.050 30.518,232.417 30.871 C 233.048 31.481,233.491 31.787,234.250 32.141 C 234.433 32.226,234.793 32.492,235.050 32.732 C 235.307 32.971,235.588 33.167,235.675 33.167 C 235.762 33.167,235.833 33.232,235.833 33.311 C 235.833 33.391,236.139 33.658,236.513 33.906 C 236.887 34.153,237.556 34.721,238.000 35.167 C 238.444 35.613,239.038 36.097,239.320 36.243 C 239.602 36.389,239.833 36.575,239.833 36.657 C 239.833 36.879,241.039 38.100,241.376 38.220 C 241.538 38.277,241.756 38.514,241.862 38.745 C 241.967 38.977,242.116 39.167,242.193 39.167 C 242.270 39.167,242.333 39.255,242.333 39.363 C 242.333 39.472,242.653 39.865,243.043 40.238 C 243.434 40.611,244.053 41.292,244.418 41.750 C 245.149 42.666,245.481 43.060,246.292 43.973 C 246.589 44.309,246.833 44.634,246.833 44.696 C 246.833 44.757,247.058 45.033,247.333 45.308 C 247.608 45.583,247.833 45.855,247.833 45.913 C 247.833 46.273,248.623 47.641,249.144 48.183 C 249.483 48.536,250.017 49.333,250.330 49.954 C 250.642 50.575,251.097 51.346,251.339 51.667 C 251.582 51.987,251.914 52.663,252.077 53.167 C 252.475 54.394,253.031 55.667,253.169 55.667 C 253.336 55.667,253.778 56.647,253.996 57.500 C 254.301 58.695,254.966 60.535,255.139 60.665 C 255.553 60.975,256.051 62.746,256.335 64.917 C 256.471 65.949,256.956 67.956,257.142 68.250 C 258.033 69.661,258.500 79.209,258.011 86.001 C 257.775 89.281,257.545 90.738,257.028 92.250 C 256.672 93.293,256.333 94.627,256.333 94.991 C 256.333 95.344,256.035 96.818,255.632 98.455 C 255.537 98.843,255.363 99.240,255.246 99.337 C 254.908 99.617,254.226 101.165,253.999 102.167 C 253.808 103.007,253.401 103.962,253.146 104.167 C 252.976 104.303,251.833 106.686,251.833 106.904 C 251.833 107.014,251.627 107.302,251.375 107.544 C 250.920 107.980,250.635 108.467,250.082 109.750 C 249.924 110.117,249.485 110.829,249.106 111.333 C 248.727 111.837,248.272 112.513,248.095 112.833 C 247.919 113.154,247.469 113.718,247.095 114.087 C 246.722 114.456,246.267 115.054,246.083 115.416 C 245.718 116.138,245.260 116.667,245.000 116.667 C 244.908 116.667,244.833 116.753,244.833 116.858 C 244.833 117.162,243.695 118.469,243.329 118.585 C 243.146 118.643,242.877 118.920,242.732 119.201 C 242.467 119.713,238.811 123.358,237.585 124.332 C 237.227 124.617,236.668 125.129,236.342 125.470 C 236.016 125.811,235.555 126.189,235.318 126.309 C 235.080 126.430,234.542 126.848,234.123 127.238 C 233.704 127.629,233.130 128.044,232.847 128.161 C 232.565 128.278,232.333 128.440,232.333 128.520 C 232.333 128.601,232.255 128.667,232.159 128.667 C 232.064 128.667,231.788 128.850,231.546 129.075 C 231.304 129.299,230.538 129.762,229.845 130.103 C 229.151 130.444,228.396 130.917,228.167 131.154 C 227.802 131.531,227.432 131.726,225.917 132.342 C 224.921 132.747,224.345 133.048,224.060 133.313 C 223.680 133.667,222.283 134.167,221.672 134.167 C 221.146 134.167,219.881 134.612,218.750 135.197 C 217.857 135.658,216.057 136.101,212.686 136.689 C 212.192 136.775,211.367 136.986,210.852 137.158 C 207.073 138.420,191.251 138.435,188.083 137.179 C 186.637 136.605,184.900 136.168,184.056 136.164 C 183.215 136.160,180.490 135.583,180.355 135.381 C 180.223 135.182,178.074 134.167,177.785 134.167 C 177.381 134.167,175.868 133.567,175.225 133.152 C 174.872 132.924,174.246 132.601,173.833 132.434 C 172.123 131.743,171.517 131.442,171.144 131.098 C 170.927 130.899,170.188 130.460,169.500 130.124 C 168.813 129.788,168.055 129.304,167.817 129.048 C 167.424 128.626,167.040 128.380,166.333 128.097 C 165.937 127.938,165.261 127.467,164.458 126.792 C 164.050 126.448,163.664 126.167,163.601 126.167 C 163.435 126.167,163.063 125.854,162.188 124.977 C 161.764 124.552,161.192 124.076,160.917 123.920 C 160.642 123.763,160.171 123.305,159.870 122.901 C 159.569 122.497,159.231 122.167,159.119 122.167 C 159.007 122.167,158.690 121.885,158.416 121.542 C 158.142 121.198,157.577 120.579,157.161 120.167 C 156.745 119.754,156.242 119.154,156.044 118.833 C 155.845 118.513,155.415 118.029,155.087 117.759 C 154.759 117.489,154.336 116.958,154.147 116.579 C 153.957 116.200,153.447 115.474,153.013 114.965 C 152.579 114.456,152.089 113.749,151.924 113.395 C 151.760 113.040,151.334 112.368,150.979 111.901 C 150.624 111.434,150.333 111.000,150.333 110.936 C 150.333 110.781,149.617 109.765,149.458 109.694 C 149.390 109.664,149.333 109.566,149.333 109.476 C 149.333 109.387,149.096 109.019,148.806 108.658 C 148.516 108.297,148.140 107.608,147.971 107.126 C 147.801 106.644,147.589 106.225,147.498 106.194 C 147.407 106.164,147.333 106.074,147.333 105.994 C 147.333 105.915,147.117 105.528,146.853 105.133 C 146.588 104.739,146.239 103.967,146.077 103.417 C 145.915 102.867,145.469 101.742,145.085 100.917 C 144.146 98.894,143.986 98.425,143.821 97.210 C 143.743 96.638,143.602 96.024,143.507 95.846 C 143.411 95.668,143.333 95.346,143.333 95.131 C 143.333 94.917,143.233 94.593,143.111 94.412 C 142.161 93.008,141.490 80.053,142.068 74.262 C 142.214 72.802,142.333 71.031,142.333 70.327 C 142.333 68.697,142.560 67.508,143.079 66.410 C 143.540 65.437,143.728 64.693,144.008 62.750 C 144.191 61.477,144.782 59.343,145.001 59.167 C 145.122 59.069,145.648 57.590,146.168 55.889 C 146.369 55.232,146.669 54.549,146.834 54.371 C 147.219 53.958,147.710 52.961,148.001 52.000 C 148.241 51.211,148.615 50.586,149.277 49.872 C 149.496 49.636,149.719 49.268,149.772 49.055 C 149.826 48.841,149.927 48.667,149.998 48.667 C 150.069 48.667,150.212 48.329,150.316 47.917 C 150.420 47.504,150.579 47.167,150.669 47.167 C 150.759 47.167,150.833 47.097,150.833 47.012 C 150.833 46.927,151.080 46.596,151.380 46.277 C 151.681 45.958,152.038 45.486,152.172 45.229 C 152.307 44.972,152.712 44.472,153.074 44.119 C 153.713 43.494,154.061 43.016,154.257 42.495 C 154.310 42.354,154.569 42.094,154.833 41.917 C 155.097 41.740,155.523 41.259,155.781 40.849 C 156.039 40.439,156.606 39.731,157.042 39.276 C 157.477 38.821,157.833 38.385,157.833 38.307 C 157.833 38.230,157.914 38.167,158.013 38.167 C 158.111 38.167,158.718 37.644,159.362 37.006 C 160.005 36.368,160.682 35.798,160.865 35.740 C 161.187 35.638,161.833 35.088,161.833 34.917 C 161.833 34.744,162.447 34.238,163.038 33.925 C 163.375 33.746,163.883 33.318,164.168 32.974 C 164.452 32.630,165.075 32.153,165.551 31.914 C 166.788 31.292,167.071 31.119,167.411 30.780 C 167.577 30.614,168.182 30.256,168.757 29.985 C 169.331 29.713,170.175 29.193,170.633 28.829 C 171.090 28.465,171.566 28.164,171.691 28.161 C 172.166 28.150,173.663 27.543,174.195 27.146 C 174.825 26.674,175.857 26.168,176.192 26.165 C 176.950 26.157,180.333 24.771,180.333 24.468 C 180.333 24.402,180.615 24.301,180.958 24.244 C 181.302 24.186,181.921 24.042,182.333 23.924 C 182.746 23.805,183.660 23.581,184.364 23.426 C 185.069 23.270,185.734 23.036,185.843 22.905 C 185.952 22.774,186.167 22.667,186.320 22.667 C 186.474 22.667,186.676 22.591,186.768 22.499 C 186.860 22.407,187.749 22.254,188.743 22.160 C 189.737 22.066,190.618 21.946,190.702 21.895 C 190.785 21.844,191.804 21.728,192.968 21.638 C 194.131 21.548,195.683 21.417,196.417 21.346 C 198.722 21.125,202.485 21.157,205.167 21.420 M198.250 33.262 C 197.792 33.389,196.967 33.495,196.417 33.498 C 195.867 33.500,194.530 33.651,193.447 33.834 C 192.364 34.017,191.037 34.167,190.499 34.167 C 189.466 34.167,187.391 34.803,186.726 35.323 C 186.530 35.477,185.892 35.735,185.310 35.896 C 182.770 36.598,182.433 36.717,182.101 37.029 C 181.616 37.485,180.138 38.167,179.634 38.167 C 179.224 38.167,177.833 39.042,177.833 39.300 C 177.833 39.373,177.206 39.749,176.440 40.136 C 175.674 40.523,174.912 40.988,174.747 41.170 C 174.583 41.352,174.054 41.687,173.572 41.915 C 173.090 42.143,172.446 42.618,172.140 42.971 C 171.834 43.325,171.358 43.753,171.083 43.923 C 170.484 44.295,170.179 44.597,169.786 45.208 C 169.625 45.460,169.379 45.667,169.241 45.667 C 169.103 45.667,168.946 45.779,168.894 45.917 C 168.841 46.054,168.731 46.167,168.649 46.167 C 168.484 46.167,167.833 46.777,167.833 46.931 C 167.833 46.985,167.563 47.266,167.233 47.556 C 166.160 48.500,165.833 48.816,165.833 48.912 C 165.833 48.963,165.508 49.323,165.109 49.711 C 164.711 50.099,164.242 50.674,164.068 50.989 C 163.752 51.558,163.243 52.167,163.083 52.167 C 162.872 52.167,162.377 52.838,161.972 53.674 C 161.727 54.178,161.371 54.732,161.180 54.904 C 160.989 55.077,160.833 55.319,160.833 55.442 C 160.833 55.566,160.774 55.667,160.701 55.667 C 160.629 55.667,160.371 56.098,160.129 56.625 C 159.886 57.152,159.515 57.766,159.302 57.988 C 158.700 58.621,158.336 59.220,158.334 59.580 C 158.333 60.009,157.646 61.667,157.469 61.667 C 157.395 61.667,157.333 61.779,157.333 61.917 C 157.333 62.054,157.260 62.167,157.171 62.167 C 156.935 62.167,156.460 63.144,156.320 63.917 C 155.920 66.132,155.678 66.874,154.807 68.570 C 154.588 68.996,154.391 69.926,154.241 71.237 C 154.115 72.344,153.917 73.887,153.801 74.667 C 153.111 79.308,154.049 91.818,155.151 92.667 C 155.418 92.872,156.330 95.638,156.337 96.265 C 156.342 96.734,156.921 97.930,157.386 98.431 C 157.609 98.671,157.921 99.329,158.080 99.892 C 158.453 101.216,158.872 102.162,159.086 102.165 C 159.276 102.167,160.333 103.715,160.333 103.990 C 160.333 104.087,160.403 104.167,160.489 104.167 C 160.574 104.167,160.689 104.307,160.744 104.480 C 160.798 104.652,161.033 105.008,161.266 105.271 C 161.498 105.535,161.844 106.087,162.035 106.500 C 162.226 106.912,162.728 107.595,163.150 108.016 C 164.004 108.870,164.333 109.264,164.333 109.432 C 164.333 109.659,168.994 114.167,169.228 114.167 C 169.361 114.167,169.769 114.525,170.137 114.964 C 170.504 115.403,171.015 115.871,171.272 116.006 C 171.758 116.260,172.333 116.761,172.333 116.932 C 172.333 117.087,173.063 117.655,173.270 117.661 C 173.701 117.674,174.992 118.367,175.679 118.953 C 176.517 119.669,177.210 120.072,177.875 120.231 C 178.127 120.291,178.333 120.413,178.333 120.503 C 178.333 120.593,178.446 120.667,178.583 120.667 C 178.721 120.667,178.833 120.735,178.833 120.818 C 178.833 121.072,180.711 121.872,181.827 122.094 C 182.355 122.199,183.635 122.771,183.833 122.991 C 184.205 123.403,186.598 124.067,188.321 124.236 C 188.818 124.285,189.301 124.401,189.396 124.496 C 189.490 124.590,189.687 124.667,189.833 124.667 C 189.980 124.667,190.190 124.757,190.301 124.867 C 190.979 125.546,194.817 125.895,200.500 125.796 C 205.007 125.717,205.765 125.620,207.464 124.899 C 207.765 124.771,208.239 124.667,208.517 124.667 C 208.795 124.667,209.167 124.589,209.345 124.494 C 209.522 124.399,210.324 124.243,211.125 124.146 C 213.245 123.892,214.974 123.396,215.814 122.799 C 216.216 122.514,216.816 122.221,217.147 122.148 C 218.603 121.828,219.357 121.541,219.788 121.142 C 220.349 120.622,220.991 120.282,222.674 119.614 C 222.999 119.484,223.562 119.106,223.924 118.774 C 224.287 118.441,224.669 118.168,224.773 118.167 C 225.038 118.166,226.833 116.983,226.833 116.809 C 226.833 116.731,226.946 116.667,227.083 116.667 C 227.221 116.667,227.333 116.599,227.333 116.516 C 227.333 116.433,227.684 116.159,228.114 115.908 C 228.543 115.656,229.161 115.170,229.489 114.827 C 229.816 114.484,230.403 114.037,230.794 113.834 C 231.184 113.630,231.701 113.191,231.941 112.857 C 232.182 112.523,232.706 112.004,233.106 111.703 C 233.506 111.402,233.833 111.077,233.833 110.981 C 233.833 110.811,234.924 109.667,235.086 109.667 C 235.214 109.667,235.833 109.013,235.836 108.875 C 235.837 108.806,236.246 108.270,236.744 107.684 C 237.243 107.097,237.698 106.403,237.755 106.142 C 237.813 105.881,237.924 105.667,238.002 105.667 C 238.080 105.667,238.193 105.513,238.253 105.325 C 238.312 105.137,238.580 104.759,238.847 104.486 C 239.115 104.212,239.333 103.916,239.333 103.828 C 239.333 103.739,239.396 103.667,239.473 103.667 C 239.550 103.667,239.783 103.263,239.992 102.770 C 240.200 102.276,240.550 101.680,240.769 101.444 C 240.988 101.208,241.167 100.960,241.167 100.893 C 241.167 100.827,241.312 100.467,241.489 100.094 C 241.667 99.722,241.969 98.942,242.162 98.362 C 242.355 97.782,242.681 97.032,242.888 96.695 C 243.572 95.580,244.333 93.151,244.333 92.082 C 244.333 91.836,244.457 91.398,244.607 91.109 C 245.131 90.103,245.196 89.955,245.454 89.188 C 245.970 87.651,246.292 77.929,245.941 74.500 C 245.664 71.805,245.507 71.099,244.812 69.437 C 244.549 68.806,244.333 68.108,244.333 67.886 C 244.333 67.663,244.262 67.166,244.175 66.782 C 244.088 66.398,243.971 65.728,243.915 65.294 C 243.859 64.859,243.724 64.408,243.615 64.291 C 243.410 64.070,243.047 63.450,242.616 62.583 C 242.479 62.308,242.236 61.633,242.075 61.083 C 241.914 60.533,241.589 59.783,241.352 59.417 C 240.655 58.336,240.537 58.129,240.069 57.167 C 239.824 56.663,239.559 56.225,239.479 56.194 C 239.399 56.164,239.333 56.056,239.333 55.955 C 239.333 55.854,239.190 55.617,239.016 55.427 C 238.681 55.064,238.109 54.153,237.850 53.570 C 237.766 53.379,237.400 52.942,237.038 52.599 C 236.676 52.256,236.217 51.648,236.017 51.248 C 235.817 50.848,235.361 50.279,235.005 49.984 C 234.648 49.689,234.312 49.272,234.258 49.057 C 234.204 48.842,234.087 48.667,233.997 48.667 C 233.907 48.667,233.833 48.554,233.833 48.417 C 233.833 48.279,233.755 48.167,233.660 48.167 C 233.412 48.167,233.191 47.970,231.085 45.875 C 230.048 44.844,229.131 44.000,229.047 44.000 C 228.821 44.000,227.833 43.083,227.833 42.873 C 227.833 42.774,227.271 42.426,226.583 42.099 C 225.896 41.773,225.333 41.439,225.333 41.356 C 225.333 41.274,224.883 40.920,224.333 40.570 C 223.783 40.219,223.333 39.881,223.333 39.818 C 223.333 39.755,223.165 39.660,222.958 39.607 C 222.752 39.554,222.396 39.335,222.166 39.120 C 221.937 38.906,221.337 38.592,220.833 38.424 C 218.981 37.804,218.476 37.574,218.034 37.147 C 217.624 36.751,214.707 35.667,214.051 35.667 C 213.920 35.667,213.199 35.371,212.448 35.009 C 211.058 34.340,209.580 34.026,206.083 33.659 C 205.350 33.582,204.338 33.403,203.833 33.262 C 202.676 32.936,199.419 32.936,198.250 33.262 M200.667 39.014 C 200.987 39.097,201.804 39.165,202.480 39.166 C 205.427 39.168,205.735 40.011,206.007 48.833 C 206.352 60.012,206.480 63.097,206.650 64.333 C 206.745 65.021,206.825 66.022,206.828 66.558 C 206.831 67.094,206.935 67.769,207.060 68.058 C 207.325 68.674,207.644 70.141,207.844 71.667 C 208.098 73.601,208.660 75.196,209.328 75.880 C 209.898 76.463,209.969 76.748,210.107 79.020 C 210.266 81.646,209.972 83.288,209.094 84.667 C 208.715 85.262,208.259 86.032,208.080 86.377 C 207.746 87.023,207.344 87.502,206.649 88.084 C 204.737 89.683,204.282 89.920,202.167 90.415 C 200.947 90.700,200.151 91.037,199.699 91.458 C 199.577 91.573,199.346 91.667,199.187 91.667 C 199.027 91.667,198.751 91.777,198.574 91.911 C 198.396 92.046,198.115 92.158,197.950 92.161 C 197.526 92.169,196.657 92.640,196.167 93.128 C 195.938 93.357,195.544 93.616,195.292 93.705 C 195.040 93.793,194.833 93.934,194.833 94.016 C 194.833 94.099,194.740 94.167,194.625 94.168 C 194.510 94.169,193.975 94.548,193.435 95.010 C 192.895 95.472,192.174 95.993,191.835 96.166 C 191.495 96.340,190.871 96.817,190.449 97.227 C 190.027 97.637,189.517 98.025,189.315 98.089 C 188.952 98.204,187.836 99.299,187.834 99.542 C 187.834 99.610,187.752 99.667,187.653 99.667 C 187.351 99.667,185.641 100.852,184.597 101.785 C 184.054 102.270,183.525 102.667,183.422 102.667 C 183.319 102.667,182.938 102.972,182.575 103.346 C 182.213 103.719,181.673 104.128,181.376 104.254 C 181.079 104.379,180.486 104.861,180.060 105.324 C 179.633 105.788,179.200 106.167,179.097 106.167 C 178.995 106.167,178.525 106.504,178.054 106.917 C 177.582 107.329,177.121 107.667,177.029 107.667 C 176.937 107.667,176.836 107.723,176.806 107.792 C 176.740 107.939,175.724 108.667,175.583 108.667 C 175.530 108.667,175.320 108.822,175.118 109.011 C 173.495 110.530,169.833 110.495,169.833 108.961 C 169.833 108.883,169.516 108.509,169.127 108.128 C 167.463 106.496,166.954 104.254,167.806 102.301 C 168.257 101.266,171.777 97.371,173.676 95.806 C 174.083 95.470,174.665 94.963,174.969 94.681 C 175.272 94.398,175.591 94.167,175.677 94.167 C 175.763 94.167,175.833 94.108,175.833 94.036 C 175.833 93.964,176.040 93.781,176.292 93.629 C 176.544 93.477,177.482 92.636,178.376 91.760 C 179.271 90.883,180.077 90.167,180.168 90.167 C 180.259 90.167,180.333 90.094,180.333 90.004 C 180.333 89.915,180.540 89.733,180.792 89.599 C 181.044 89.466,181.400 89.123,181.583 88.837 C 181.767 88.551,182.179 88.157,182.500 87.960 C 183.265 87.490,183.827 86.966,183.830 86.717 C 183.834 86.505,184.844 85.667,185.099 85.666 C 185.182 85.665,185.438 85.388,185.667 85.051 C 186.115 84.392,186.834 83.667,187.040 83.667 C 187.251 83.667,187.731 83.098,188.063 82.456 C 188.236 82.122,188.592 81.685,188.855 81.483 C 189.118 81.282,189.333 81.016,189.333 80.892 C 189.333 80.768,189.399 80.667,189.480 80.667 C 189.560 80.667,189.719 80.442,189.833 80.167 C 189.947 79.892,190.106 79.667,190.187 79.667 C 190.267 79.667,190.333 79.554,190.333 79.417 C 190.333 79.279,190.408 79.167,190.500 79.167 C 190.592 79.167,190.667 79.022,190.667 78.845 C 190.667 78.668,190.771 78.419,190.899 78.291 C 191.328 77.863,191.833 76.525,191.841 75.801 C 191.845 75.406,191.924 74.746,192.017 74.333 C 192.110 73.921,192.249 72.745,192.325 71.721 C 192.460 69.897,192.626 68.924,193.090 67.250 C 193.666 65.170,193.903 61.803,194.165 52.000 C 194.324 46.039,194.373 45.572,195.096 43.106 C 195.226 42.660,195.333 42.095,195.333 41.850 C 195.333 40.701,196.649 39.174,197.650 39.161 C 197.888 39.158,198.271 39.048,198.500 38.917 C 198.917 38.679,199.461 38.703,200.667 39.014 " stroke="none" fill="#24333b" fill-rule="evenodd"></path><path id="path2" d="M10.500 0.571 C 10.500 1.141,9.576 2.167,9.063 2.167 C 8.956 2.167,8.828 2.273,8.778 2.403 C 8.644 2.753,9.603 2.217,10.287 1.558 C 10.821 1.045,11.076 0.000,10.667 0.000 C 10.575 0.000,10.500 0.257,10.500 0.571 M390.339 0.542 C 390.344 1.062,393.023 4.199,393.260 3.963 C 393.303 3.919,392.738 3.262,392.003 2.503 C 390.870 1.333,390.667 1.038,390.667 0.561 C 390.667 0.253,390.592 0.000,390.500 0.000 C 390.408 0.000,390.336 0.244,390.339 0.542 M7.695 3.419 C 7.298 3.830,7.046 4.167,7.134 4.167 C 7.291 4.167,8.500 2.913,8.500 2.750 C 8.500 2.601,8.426 2.663,7.695 3.419 M393.679 4.624 C 393.902 4.876,394.140 5.107,394.208 5.138 C 394.277 5.169,394.333 5.270,394.333 5.362 C 394.333 5.554,395.008 6.153,395.234 6.161 C 395.317 6.164,395.109 5.899,394.772 5.572 C 394.435 5.244,394.040 4.794,393.894 4.572 C 393.748 4.349,393.549 4.167,393.452 4.167 C 393.355 4.167,393.457 4.373,393.679 4.624 M5.542 5.572 C 4.165 6.982,3.910 7.428,5.172 6.220 C 5.920 5.504,6.932 4.332,6.800 4.334 C 6.773 4.335,6.206 4.892,5.542 5.572 M395.839 7.171 C 395.845 7.431,396.465 8.260,396.570 8.149 C 396.604 8.113,396.452 7.823,396.232 7.505 C 396.013 7.186,395.836 7.036,395.839 7.171 M3.830 7.642 C 3.599 7.885,3.261 8.173,3.080 8.282 C 2.813 8.443,2.845 8.446,3.251 8.302 C 3.527 8.204,3.890 7.941,4.059 7.717 C 4.484 7.155,4.339 7.107,3.830 7.642 M397.046 8.459 C 397.191 8.619,397.427 8.976,397.571 9.250 C 397.714 9.525,397.832 9.646,397.832 9.520 C 397.834 9.191,397.174 8.167,396.961 8.167 C 396.862 8.167,396.901 8.298,397.046 8.459 M2.533 8.867 C 2.423 8.977,2.342 9.220,2.353 9.408 C 2.372 9.743,2.374 9.743,2.454 9.417 C 2.499 9.233,2.612 8.990,2.705 8.875 C 2.921 8.609,2.797 8.603,2.533 8.867 M397.833 9.914 C 397.833 9.985,397.990 10.297,398.181 10.606 C 398.487 11.101,398.546 11.571,398.678 14.542 C 399.022 22.289,398.855 148.759,398.501 149.250 C 398.434 149.342,398.331 149.673,398.272 149.987 C 398.212 150.301,397.971 150.965,397.736 151.461 C 397.501 151.958,397.340 152.396,397.378 152.434 C 397.417 152.472,397.583 152.203,397.749 151.835 C 397.915 151.467,398.114 151.167,398.192 151.167 C 398.270 151.167,398.333 150.975,398.333 150.742 C 398.333 150.508,398.465 150.077,398.625 149.783 C 398.897 149.285,398.920 147.925,398.963 129.125 L 399.010 109.000 399.505 109.000 L 400.000 109.000 400.000 66.083 L 400.000 23.167 399.517 23.167 L 399.034 23.167 398.973 17.208 L 398.912 11.250 398.373 10.517 C 398.076 10.113,397.833 9.842,397.833 9.914 M2.047 10.769 C 1.829 11.524,1.379 13.639,1.244 14.542 C 1.158 15.125,1.114 15.167,0.576 15.167 L 0.000 15.167 0.000 17.417 L 0.000 19.667 0.559 19.667 L 1.118 19.667 1.225 18.542 C 1.283 17.923,1.332 16.929,1.334 16.333 C 1.336 15.737,1.448 14.838,1.583 14.333 C 1.719 13.829,1.830 13.189,1.831 12.910 C 1.832 12.631,1.948 11.963,2.088 11.425 C 2.374 10.326,2.339 9.762,2.047 10.769 M0.000 134.583 L 0.000 148.167 0.583 148.167 C 1.115 148.167,1.167 148.209,1.167 148.646 C 1.167 148.910,1.286 149.225,1.431 149.345 C 1.576 149.466,1.811 149.853,1.952 150.206 C 2.093 150.559,2.248 150.807,2.297 150.759 C 2.409 150.647,1.818 149.291,1.588 149.131 C 1.424 149.018,1.239 138.251,1.187 125.875 L 1.167 121.000 0.583 121.000 L 0.000 121.000 0.000 134.583 M2.597 151.515 C 2.771 151.707,3.064 151.942,3.248 152.038 C 3.476 152.156,3.424 152.047,3.083 151.694 C 2.530 151.121,2.096 150.961,2.597 151.515 M3.935 152.642 C 4.237 153.177,6.554 155.667,6.749 155.667 C 6.923 155.667,5.753 154.180,5.574 154.173 C 5.375 154.166,4.333 153.133,4.333 152.943 C 4.333 152.875,4.173 152.654,3.976 152.451 L 3.619 152.083 3.935 152.642 M395.944 153.778 C 395.608 154.114,395.334 154.470,395.334 154.569 C 395.335 154.669,395.504 154.539,395.710 154.282 C 395.916 154.024,396.272 153.670,396.501 153.494 C 396.729 153.318,396.835 153.172,396.736 153.170 C 396.637 153.168,396.281 153.442,395.944 153.778 M394.167 155.493 C 393.486 155.857,392.226 156.948,392.348 157.070 C 392.393 157.115,392.765 156.849,393.174 156.478 C 393.582 156.106,394.160 155.696,394.458 155.566 C 394.756 155.435,395.000 155.292,395.000 155.248 C 395.000 155.105,394.764 155.174,394.167 155.493 M7.451 156.490 C 7.823 156.862,8.176 157.167,8.235 157.167 C 8.473 157.167,7.603 156.191,7.203 156.009 C 6.851 155.849,6.896 155.935,7.451 156.490 M391.500 157.599 C 391.271 157.826,390.896 158.053,390.667 158.103 C 389.331 158.396,387.984 160.000,389.073 160.000 C 389.249 160.000,389.333 159.844,389.333 159.516 C 389.333 159.029,389.901 158.546,390.816 158.256 C 391.205 158.132,392.343 157.160,392.079 157.177 C 391.990 157.182,391.729 157.372,391.500 157.599 M8.333 157.406 C 8.333 157.474,8.671 157.858,9.083 158.259 C 9.648 158.807,9.833 159.113,9.833 159.494 C 9.833 159.772,9.908 160.000,10.000 160.000 C 10.516 160.000,10.116 159.031,9.250 158.182 C 8.746 157.687,8.333 157.338,8.333 157.406 " stroke="none" fill="#5e6866" fill-rule="evenodd"></path><path id="path3" d="M390.000 0.583 C 390.000 0.904,390.075 1.167,390.167 1.167 C 390.258 1.167,390.333 1.279,390.333 1.417 C 390.333 1.554,390.417 1.667,390.519 1.667 C 390.622 1.667,391.000 1.985,391.360 2.375 C 392.675 3.798,393.050 4.167,393.184 4.167 C 393.260 4.167,392.651 3.473,391.831 2.625 C 390.582 1.333,390.340 0.995,390.337 0.542 C 390.335 0.244,390.258 0.000,390.167 0.000 C 390.075 0.000,390.000 0.263,390.000 0.583 M10.197 1.618 C 9.985 1.846,9.857 2.079,9.912 2.135 C 9.998 2.220,10.833 1.394,10.833 1.224 C 10.833 1.066,10.542 1.246,10.197 1.618 M8.989 2.459 C 8.424 2.843,7.246 4.167,7.469 4.167 C 7.566 4.167,7.924 3.825,8.266 3.408 C 8.608 2.990,9.082 2.543,9.319 2.414 C 9.556 2.285,9.675 2.178,9.583 2.174 C 9.492 2.171,9.224 2.300,8.989 2.459 M6.597 4.630 L 6.277 5.083 6.722 4.679 C 7.189 4.255,7.247 4.163,7.042 4.172 C 6.973 4.175,6.773 4.381,6.597 4.630 M393.334 4.375 C 393.334 4.444,393.449 4.631,393.589 4.792 C 393.730 4.952,394.037 5.327,394.271 5.625 C 394.505 5.923,394.783 6.164,394.890 6.161 C 394.996 6.158,394.915 6.015,394.708 5.843 C 394.502 5.671,394.333 5.482,394.333 5.423 C 394.333 5.364,394.109 5.076,393.834 4.783 C 393.560 4.490,393.335 4.306,393.334 4.375 M5.500 5.874 C 5.053 6.276,4.918 6.461,5.167 6.333 C 5.636 6.091,6.419 5.362,6.317 5.264 C 6.280 5.229,5.912 5.503,5.500 5.874 M396.667 8.417 C 396.781 8.554,396.949 8.667,397.041 8.667 C 397.134 8.667,397.116 8.556,397.000 8.417 C 396.886 8.279,396.718 8.167,396.626 8.167 C 396.533 8.167,396.551 8.277,396.667 8.417 M2.608 8.960 C 2.565 9.029,2.486 9.385,2.432 9.751 C 2.321 10.499,2.401 10.389,2.643 9.458 C 2.797 8.869,2.784 8.676,2.608 8.960 M397.615 9.787 C 397.760 10.225,397.986 10.706,398.116 10.857 C 398.551 11.361,398.989 72.797,398.676 89.500 C 398.412 103.603,398.238 149.412,398.448 149.282 C 398.841 149.039,399.057 23.092,398.680 14.580 C 398.541 11.457,398.504 11.191,398.099 10.430 C 397.861 9.983,397.667 9.520,397.667 9.402 C 397.667 9.283,397.596 9.142,397.509 9.089 C 397.422 9.035,397.469 9.349,397.615 9.787 M2.003 11.736 C 1.897 12.247,1.837 12.834,1.871 13.041 C 1.905 13.248,2.030 12.868,2.150 12.197 C 2.405 10.764,2.284 10.382,2.003 11.736 M1.534 14.490 C 1.424 14.968,1.333 15.822,1.332 16.388 C 1.331 16.954,1.283 17.923,1.225 18.542 L 1.118 19.667 0.559 19.667 L 0.000 19.667 0.000 24.417 L 0.000 29.167 0.561 29.167 L 1.122 29.167 1.233 24.458 C 1.294 21.869,1.460 18.455,1.602 16.872 C 1.877 13.797,1.857 13.091,1.534 14.490 M0.000 107.000 L 0.000 121.000 0.556 121.000 L 1.112 121.000 1.223 130.027 C 1.284 134.993,1.333 141.096,1.333 143.590 C 1.333 146.084,1.380 148.359,1.438 148.646 C 1.606 149.488,1.889 149.266,1.782 148.375 C 1.692 147.624,1.438 127.362,1.225 103.792 L 1.127 93.000 0.563 93.000 L 0.000 93.000 0.000 107.000 M1.845 149.417 C 1.846 149.711,2.321 150.440,2.327 150.157 C 2.331 150.014,2.223 149.751,2.089 149.574 C 1.954 149.396,1.844 149.325,1.845 149.417 M398.011 150.167 C 397.900 150.579,397.702 151.129,397.571 151.389 C 397.218 152.089,397.283 152.340,397.642 151.664 C 398.060 150.879,398.376 149.876,398.287 149.624 C 398.247 149.510,398.123 149.754,398.011 150.167 M3.635 152.148 C 3.939 152.433,4.232 152.667,4.286 152.667 C 4.459 152.667,3.768 151.976,3.419 151.800 C 3.234 151.706,3.332 151.863,3.635 152.148 M397.030 152.606 C 396.909 152.737,396.840 152.936,396.877 153.047 C 396.916 153.164,397.031 153.086,397.152 152.860 C 397.399 152.399,397.338 152.271,397.030 152.606 M395.887 153.542 C 395.268 154.229,395.268 154.425,395.886 153.833 C 396.222 153.512,396.497 153.231,396.498 153.208 C 396.505 153.046,396.168 153.230,395.887 153.542 M5.167 153.917 C 5.281 154.054,5.449 154.167,5.541 154.167 C 5.634 154.167,5.616 154.056,5.500 153.917 C 5.386 153.779,5.218 153.667,5.126 153.667 C 5.033 153.667,5.051 153.777,5.167 153.917 M7.073 155.885 C 7.251 155.994,7.607 156.306,7.865 156.579 C 8.123 156.851,8.333 156.988,8.333 156.883 C 8.333 156.657,7.168 155.662,6.920 155.676 C 6.827 155.682,6.895 155.776,7.073 155.885 M392.343 156.609 C 391.870 157.211,392.046 157.314,392.574 156.744 C 393.041 156.240,393.076 156.167,392.845 156.167 C 392.760 156.167,392.534 156.366,392.343 156.609 M8.679 157.612 C 8.902 157.857,9.323 158.274,9.615 158.537 C 9.946 158.836,10.172 159.219,10.213 159.550 L 10.280 160.083 10.301 159.500 C 10.321 158.946,9.885 158.167,9.555 158.167 C 9.477 158.167,9.227 157.942,9.000 157.667 C 8.773 157.392,8.517 157.167,8.431 157.167 C 8.345 157.167,8.457 157.367,8.679 157.612 M391.543 157.357 C 391.438 157.462,391.067 157.681,390.718 157.844 C 390.292 158.042,390.190 158.144,390.406 158.153 C 390.743 158.167,391.830 157.510,391.832 157.292 C 391.834 157.119,391.765 157.135,391.543 157.357 M389.122 158.589 C 388.639 158.918,388.500 159.122,388.500 159.506 C 388.500 160.173,388.799 160.137,388.864 159.462 C 388.900 159.097,389.041 158.862,389.306 158.731 C 389.520 158.625,389.778 158.455,389.881 158.353 C 390.219 158.014,389.755 158.159,389.122 158.589 " stroke="none" fill="#525d5c" fill-rule="evenodd"></path><path id="path4" d="M10.833 0.641 C 10.833 1.390,10.364 2.002,9.540 2.327 C 9.240 2.446,8.690 2.908,8.316 3.354 C 7.942 3.801,7.544 4.167,7.432 4.167 C 7.199 4.167,6.335 5.023,6.330 5.259 C 6.327 5.468,5.687 6.060,5.167 6.335 C 4.921 6.466,4.836 6.584,4.958 6.625 C 5.333 6.750,6.274 6.019,6.564 5.378 C 6.775 4.912,7.039 4.665,7.591 4.421 C 7.999 4.240,8.333 3.996,8.333 3.879 C 8.333 3.762,8.392 3.667,8.463 3.667 C 8.535 3.667,8.679 3.442,8.782 3.167 C 8.918 2.808,9.081 2.666,9.361 2.666 C 10.210 2.663,11.500 1.368,11.500 0.518 C 11.500 0.111,11.428 0.000,11.167 0.000 C 10.891 0.000,10.833 0.111,10.833 0.641 M389.705 0.727 C 389.783 1.413,390.281 2.167,390.658 2.167 C 390.840 2.167,391.831 3.187,391.833 3.375 C 391.834 3.544,392.466 4.167,392.635 4.167 C 392.853 4.167,393.604 5.039,393.856 5.583 C 393.983 5.858,394.364 6.232,394.702 6.413 C 395.072 6.613,395.358 6.910,395.421 7.163 C 395.634 8.016,397.333 9.487,397.333 8.819 C 397.333 8.735,397.239 8.667,397.123 8.667 C 396.772 8.667,396.053 7.892,395.643 7.072 C 395.430 6.645,395.092 6.233,394.893 6.158 C 394.694 6.082,394.392 5.821,394.224 5.577 C 394.055 5.334,393.785 4.992,393.625 4.817 C 393.465 4.643,393.333 4.425,393.333 4.333 C 393.333 4.242,393.269 4.167,393.190 4.167 C 393.050 4.167,392.683 3.807,391.360 2.375 C 391.000 1.985,390.622 1.667,390.519 1.667 C 390.417 1.667,390.333 1.554,390.333 1.417 C 390.333 1.279,390.258 1.167,390.167 1.167 C 390.075 1.167,390.000 0.904,390.000 0.583 C 390.000 0.261,389.916 0.000,389.812 0.000 C 389.688 0.000,389.651 0.249,389.705 0.727 M4.354 7.460 C 4.147 7.866,3.821 8.200,3.505 8.331 C 2.885 8.588,2.686 8.839,3.208 8.707 C 3.845 8.545,4.293 8.172,4.583 7.560 C 4.971 6.742,4.766 6.652,4.354 7.460 M2.545 9.917 C 1.727 14.159,1.388 17.918,1.233 24.458 L 1.122 29.167 0.561 29.167 L 0.000 29.167 0.000 61.083 L 0.000 93.000 0.583 93.000 L 1.167 93.000 1.168 94.208 C 1.188 117.921,1.676 148.932,2.038 149.506 C 2.180 149.732,2.343 150.179,2.400 150.500 C 2.457 150.821,2.671 151.215,2.877 151.376 C 4.127 152.358,4.334 152.549,4.339 152.723 C 4.346 152.967,4.921 153.667,5.115 153.667 C 5.329 153.667,6.333 154.620,6.333 154.824 C 6.333 155.038,6.718 155.426,7.559 156.059 C 7.906 156.321,8.235 156.651,8.290 156.793 C 8.404 157.091,9.418 158.167,9.584 158.167 C 9.862 158.167,10.323 158.967,10.328 159.458 C 10.331 159.756,10.408 160.000,10.500 160.000 C 11.246 160.000,10.268 157.871,9.397 157.601 C 9.203 157.541,8.810 157.115,8.524 156.655 C 8.185 156.108,7.827 155.756,7.495 155.640 C 7.136 155.515,6.868 155.228,6.581 154.662 C 6.268 154.044,6.041 153.818,5.583 153.667 C 5.126 153.516,4.899 153.289,4.584 152.669 C 4.301 152.110,3.989 151.772,3.557 151.558 C 2.014 150.791,2.080 152.444,1.826 107.917 C 1.443 40.623,1.669 15.010,2.685 10.409 C 2.787 9.947,2.841 9.422,2.804 9.243 C 2.768 9.063,2.651 9.367,2.545 9.917 M397.346 9.588 C 397.339 9.865,397.463 10.278,397.622 10.505 C 398.121 11.217,398.350 58.955,398.123 115.083 C 397.961 155.091,398.227 150.796,395.746 153.400 C 394.969 154.216,394.333 154.948,394.333 155.025 C 394.333 155.103,394.188 155.167,394.010 155.167 C 393.832 155.167,393.644 155.235,393.592 155.319 C 393.540 155.403,393.165 155.633,392.757 155.830 C 392.349 156.027,391.969 156.336,391.911 156.517 C 391.751 157.021,391.197 157.457,390.567 157.575 C 389.906 157.699,388.464 158.393,388.090 158.768 C 387.698 159.159,387.751 160.000,388.167 160.000 C 388.426 160.000,388.500 159.889,388.500 159.502 C 388.500 158.939,389.132 158.447,390.562 157.896 C 391.009 157.724,391.683 157.266,392.062 156.878 C 392.440 156.490,392.840 156.171,392.950 156.169 C 393.060 156.168,393.210 156.071,393.283 155.953 C 393.357 155.836,393.792 155.551,394.250 155.319 C 394.776 155.054,395.168 154.718,395.313 154.408 C 395.639 153.712,396.173 153.167,396.529 153.167 C 396.696 153.167,396.833 153.054,396.833 152.917 C 396.833 152.779,396.903 152.667,396.989 152.667 C 397.074 152.667,397.192 152.498,397.250 152.292 C 397.309 152.085,397.455 151.692,397.576 151.417 C 398.344 149.668,398.315 150.608,398.401 124.500 C 398.446 110.979,398.569 95.229,398.676 89.500 C 398.979 73.178,398.553 11.378,398.134 10.883 C 398.015 10.741,397.791 10.278,397.638 9.854 C 397.381 9.144,397.358 9.123,397.346 9.588 " stroke="none" fill="#4c5454" fill-rule="evenodd"></path><path id="path5" d="M8.833 0.583 C 8.833 0.929,8.751 1.167,8.631 1.167 C 8.273 1.167,3.903 5.744,3.568 6.470 C 3.393 6.848,3.180 7.160,3.095 7.162 C 2.883 7.168,1.833 8.331,1.833 8.559 C 1.833 9.362,1.082 10.500,0.553 10.500 L 0.000 10.500 0.000 12.083 L 0.000 13.667 0.576 13.667 C 1.111 13.667,1.159 13.622,1.261 13.042 C 1.322 12.698,1.520 11.892,1.703 11.250 C 1.886 10.608,2.120 9.783,2.223 9.417 C 2.408 8.756,3.297 7.667,3.650 7.667 C 3.751 7.667,3.833 7.589,3.833 7.493 C 3.833 7.047,8.743 1.833,9.162 1.833 C 9.545 1.833,10.167 1.022,10.167 0.523 C 10.167 0.024,10.136 0.000,9.500 0.000 C 8.849 0.000,8.833 0.014,8.833 0.583 M390.833 0.496 C 390.833 0.888,391.110 1.281,392.152 2.372 C 392.878 3.130,393.685 4.020,393.947 4.349 C 394.208 4.678,394.678 5.203,394.990 5.515 C 395.303 5.828,395.752 6.387,395.988 6.758 C 396.224 7.128,396.696 7.719,397.037 8.070 C 397.378 8.421,397.820 9.055,398.020 9.479 C 398.773 11.077,400.000 11.658,400.000 10.417 C 400.000 9.881,399.960 9.833,399.505 9.833 C 399.069 9.833,398.958 9.725,398.578 8.921 C 398.341 8.419,397.851 7.756,397.490 7.447 C 397.129 7.138,396.833 6.811,396.833 6.722 C 396.833 6.330,394.737 3.751,393.042 2.056 C 392.315 1.330,392.167 1.081,392.167 0.591 C 392.167 0.013,392.152 0.000,391.500 0.000 C 390.872 0.000,390.833 0.028,390.833 0.496 M0.000 150.000 C 0.000 150.647,0.017 150.667,0.567 150.667 C 1.048 150.667,1.161 150.743,1.310 151.171 C 1.406 151.448,1.886 152.066,2.376 152.546 C 2.865 153.025,3.465 153.679,3.708 154.000 C 3.952 154.321,4.754 155.221,5.492 156.000 C 6.230 156.779,6.833 157.473,6.833 157.542 C 6.833 157.610,6.946 157.667,7.083 157.667 C 7.221 157.667,7.335 157.723,7.336 157.792 C 7.337 157.860,7.562 158.171,7.836 158.481 C 8.141 158.827,8.333 159.230,8.333 159.523 C 8.333 159.957,8.386 160.000,8.917 160.000 C 9.719 160.000,9.738 159.305,8.958 158.459 C 8.660 158.135,7.854 157.255,7.167 156.502 C 6.479 155.750,5.448 154.660,4.875 154.082 C 4.302 153.503,3.833 152.985,3.833 152.931 C 3.833 152.812,3.200 152.167,3.083 152.167 C 2.931 152.167,2.333 151.503,2.333 151.333 C 2.333 151.242,2.266 151.167,2.185 151.167 C 2.103 151.167,1.986 150.965,1.924 150.718 C 1.558 149.260,0.000 148.679,0.000 150.000 M398.822 149.958 C 398.330 151.469,397.035 153.667,396.638 153.667 C 396.441 153.667,395.962 154.195,395.644 154.763 C 395.494 155.031,395.119 155.380,394.810 155.538 C 394.309 155.795,393.335 156.561,392.475 157.375 C 392.305 157.535,392.126 157.667,392.076 157.667 C 392.027 157.667,391.820 157.825,391.618 158.018 C 391.416 158.212,390.931 158.509,390.542 158.679 C 389.932 158.945,389.833 159.058,389.833 159.494 L 389.833 160.000 390.833 160.000 L 391.833 160.000 391.833 159.445 C 391.833 158.976,391.953 158.804,392.601 158.339 C 393.023 158.036,393.717 157.442,394.142 157.019 C 394.568 156.596,395.130 156.137,395.390 156.000 C 395.651 155.862,395.988 155.531,396.140 155.263 C 396.463 154.694,396.942 154.167,397.135 154.167 C 397.379 154.167,398.143 153.263,398.546 152.499 C 398.871 151.882,399.035 151.741,399.471 151.698 L 400.000 151.646 400.000 150.489 L 400.000 149.333 399.513 149.333 C 399.097 149.333,398.996 149.425,398.822 149.958 " stroke="none" fill="#7c847c" fill-rule="evenodd"></path><path id="path6" d="M12.948 0.951 C 12.844 1.967,12.508 2.399,11.667 2.601 C 10.847 2.798,10.333 3.086,10.333 3.348 C 10.333 3.646,9.826 4.167,9.535 4.167 C 9.431 4.167,9.212 4.307,9.048 4.478 C 8.884 4.649,8.485 4.874,8.161 4.979 C 7.527 5.183,7.000 5.685,7.000 6.085 C 7.000 6.490,6.368 7.000,5.867 7.000 C 5.274 7.000,5.000 7.274,5.000 7.867 C 5.000 8.469,4.463 9.000,3.854 9.000 C 3.590 9.000,3.271 9.124,3.145 9.276 C 2.800 9.692,2.803 150.070,3.149 150.716 C 3.331 151.058,3.526 151.160,4.065 151.200 C 4.670 151.244,4.770 151.312,4.921 151.780 C 5.131 152.427,5.896 153.167,6.356 153.167 C 6.579 153.167,6.759 153.336,6.881 153.657 C 6.982 153.926,7.226 154.187,7.421 154.236 C 7.616 154.285,7.862 154.515,7.968 154.746 C 8.073 154.977,8.299 155.167,8.470 155.167 C 8.640 155.167,8.866 155.356,8.972 155.588 C 9.077 155.820,9.290 156.058,9.444 156.117 C 9.801 156.254,10.333 156.782,10.333 157.000 C 10.333 157.092,10.402 157.167,10.486 157.167 C 10.647 157.167,11.237 157.625,12.024 158.362 C 12.376 158.691,12.500 158.963,12.500 159.404 L 12.500 160.000 196.750 160.000 L 381.000 160.000 381.000 159.526 L 381.000 159.052 383.042 158.697 C 386.254 158.138,387.077 157.965,387.167 157.831 C 387.305 157.623,388.810 157.167,389.357 157.167 C 389.766 157.167,390.066 156.963,390.833 156.167 C 391.695 155.272,391.867 155.167,392.463 155.167 C 393.101 155.167,393.134 155.140,393.246 154.542 C 393.389 153.775,393.828 153.340,394.585 153.217 C 395.090 153.136,395.173 153.051,395.267 152.520 C 395.387 151.846,395.918 151.167,396.325 151.167 C 396.472 151.167,396.741 150.998,396.921 150.792 C 397.247 150.420,397.250 149.818,397.298 80.917 C 397.348 7.870,397.366 10.416,396.786 10.240 C 396.289 10.088,395.833 9.671,395.833 9.368 C 395.833 9.231,395.720 9.037,395.581 8.935 C 395.443 8.833,395.273 8.420,395.205 8.017 C 395.078 7.271,394.906 7.091,394.167 6.928 C 393.491 6.779,393.333 6.599,393.201 5.827 C 393.092 5.189,393.013 5.082,392.580 4.993 C 391.675 4.807,391.360 4.535,391.218 3.817 C 391.093 3.184,391.024 3.116,390.253 2.860 C 389.525 2.617,389.403 2.509,389.253 1.972 C 389.160 1.636,389.027 1.304,388.958 1.236 C 388.890 1.167,388.833 0.861,388.833 0.556 L 388.833 0.000 200.940 0.000 L 13.047 0.000 12.948 0.951 M273.667 4.657 C 331.532 4.841,346.435 4.993,369.917 5.640 C 385.510 6.070,387.902 6.233,389.250 6.955 C 389.525 7.102,390.200 7.451,390.750 7.730 C 391.300 8.010,391.787 8.286,391.833 8.344 C 391.879 8.402,392.080 8.536,392.279 8.641 C 392.960 8.999,393.694 11.114,393.907 13.333 C 393.965 13.929,394.082 14.867,394.168 15.417 C 394.254 15.967,394.410 16.979,394.516 17.667 C 395.511 24.148,395.938 139.581,394.974 141.383 C 394.884 141.551,394.745 142.490,394.665 143.469 C 394.181 149.384,393.859 150.602,392.541 151.505 C 392.211 151.732,391.656 152.190,391.307 152.525 C 390.448 153.351,389.382 153.836,388.039 154.014 C 385.381 154.366,382.488 154.667,381.762 154.667 C 381.331 154.667,380.814 154.760,380.614 154.874 C 380.414 154.988,379.425 155.131,378.417 155.192 C 377.408 155.253,376.246 155.378,375.833 155.471 C 373.300 156.038,73.108 156.464,42.333 155.944 C 37.796 155.867,32.546 155.780,30.667 155.749 C 28.787 155.719,26.146 155.576,24.796 155.431 C 23.447 155.285,21.834 155.164,21.213 155.161 C 20.550 155.157,19.911 155.057,19.667 154.917 C 19.424 154.778,18.786 154.676,18.136 154.673 C 17.523 154.669,16.825 154.592,16.584 154.500 C 16.343 154.409,15.382 154.290,14.448 154.236 C 11.286 154.055,10.620 153.812,9.125 152.296 C 8.415 151.576,7.833 150.846,7.833 150.674 C 7.833 150.356,7.353 149.328,7.126 149.158 C 6.585 148.753,5.965 142.915,5.751 136.214 C 5.701 134.636,5.618 132.611,5.567 131.714 C 5.376 128.381,5.139 121.180,5.150 119.083 C 5.163 116.567,5.163 116.884,5.148 85.167 C 5.142 71.829,5.141 60.129,5.147 59.167 C 5.152 58.204,5.153 55.954,5.149 54.167 C 5.145 52.379,5.164 49.717,5.192 48.250 C 5.219 46.783,5.226 45.433,5.208 45.250 C 5.139 44.564,5.435 37.906,5.542 37.733 C 5.638 37.578,5.702 35.947,5.643 35.167 C 5.568 34.175,5.889 21.262,6.020 20.000 C 6.110 19.129,6.248 17.404,6.327 16.167 C 6.505 13.360,6.912 11.265,7.409 10.592 C 7.615 10.312,7.927 9.722,8.101 9.281 C 8.307 8.757,8.836 8.053,9.625 7.250 C 10.290 6.574,10.833 5.946,10.833 5.854 C 10.833 5.445,11.768 5.379,22.750 5.010 C 25.133 4.929,28.471 4.811,30.167 4.747 C 33.615 4.617,176.187 4.361,202.833 4.437 C 212.229 4.464,244.104 4.563,273.667 4.657 M196.417 21.346 C 195.683 21.417,194.131 21.548,192.968 21.638 C 191.804 21.728,190.785 21.844,190.702 21.895 C 190.618 21.946,189.737 22.066,188.743 22.160 C 187.749 22.254,186.860 22.407,186.768 22.499 C 186.676 22.591,186.474 22.667,186.320 22.667 C 186.167 22.667,185.952 22.774,185.843 22.905 C 185.734 23.036,185.069 23.270,184.364 23.426 C 183.660 23.581,182.746 23.805,182.333 23.924 C 181.921 24.042,181.302 24.186,180.958 24.244 C 180.615 24.301,180.333 24.402,180.333 24.468 C 180.333 24.771,176.950 26.157,176.192 26.165 C 175.857 26.168,174.825 26.674,174.195 27.146 C 173.663 27.543,172.166 28.150,171.691 28.161 C 171.566 28.164,171.090 28.465,170.633 28.829 C 170.175 29.193,169.331 29.713,168.757 29.985 C 168.182 30.256,167.577 30.614,167.411 30.780 C 167.071 31.119,166.788 31.292,165.551 31.914 C 165.075 32.153,164.452 32.630,164.168 32.974 C 163.883 33.318,163.375 33.746,163.038 33.925 C 162.447 34.238,161.833 34.744,161.833 34.917 C 161.833 35.088,161.187 35.638,160.865 35.740 C 160.682 35.798,160.005 36.368,159.362 37.006 C 158.718 37.644,158.111 38.167,158.013 38.167 C 157.914 38.167,157.833 38.230,157.833 38.307 C 157.833 38.385,157.477 38.821,157.042 39.276 C 156.606 39.731,156.039 40.439,155.781 40.849 C 155.523 41.259,155.097 41.740,154.833 41.917 C 154.569 42.094,154.310 42.354,154.257 42.495 C 154.061 43.016,153.713 43.494,153.074 44.119 C 152.712 44.472,152.307 44.972,152.172 45.229 C 152.038 45.486,151.681 45.958,151.380 46.277 C 151.080 46.596,150.833 46.927,150.833 47.012 C 150.833 47.097,150.759 47.167,150.669 47.167 C 150.579 47.167,150.420 47.504,150.316 47.917 C 150.212 48.329,150.069 48.667,149.998 48.667 C 149.927 48.667,149.826 48.841,149.772 49.055 C 149.719 49.268,149.496 49.636,149.277 49.872 C 148.615 50.586,148.241 51.211,148.001 52.000 C 147.710 52.961,147.219 53.958,146.834 54.371 C 146.669 54.549,146.369 55.232,146.168 55.889 C 145.648 57.590,145.122 59.069,145.001 59.167 C 144.782 59.343,144.191 61.477,144.008 62.750 C 143.728 64.693,143.540 65.437,143.079 66.410 C 142.560 67.508,142.333 68.697,142.333 70.327 C 142.333 71.031,142.214 72.802,142.068 74.262 C 141.490 80.053,142.161 93.008,143.111 94.412 C 143.233 94.593,143.333 94.917,143.333 95.131 C 143.333 95.346,143.411 95.668,143.507 95.846 C 143.602 96.024,143.743 96.638,143.821 97.210 C 143.986 98.425,144.146 98.894,145.085 100.917 C 145.469 101.742,145.915 102.867,146.077 103.417 C 146.239 103.967,146.588 104.739,146.853 105.133 C 147.117 105.528,147.333 105.915,147.333 105.994 C 147.333 106.074,147.407 106.164,147.498 106.194 C 147.589 106.225,147.801 106.644,147.971 107.126 C 148.140 107.608,148.516 108.297,148.806 108.658 C 149.096 109.019,149.333 109.387,149.333 109.476 C 149.333 109.566,149.390 109.664,149.458 109.694 C 149.617 109.765,150.333 110.781,150.333 110.936 C 150.333 111.000,150.624 111.434,150.979 111.901 C 151.334 112.368,151.760 113.040,151.924 113.395 C 152.089 113.749,152.579 114.456,153.013 114.965 C 153.447 115.474,153.957 116.200,154.147 116.579 C 154.336 116.958,154.759 117.489,155.087 117.759 C 155.415 118.029,155.845 118.513,156.044 118.833 C 156.242 119.154,156.745 119.754,157.161 120.167 C 157.577 120.579,158.142 121.198,158.416 121.542 C 158.690 121.885,159.007 122.167,159.119 122.167 C 159.231 122.167,159.569 122.497,159.870 122.901 C 160.171 123.305,160.642 123.763,160.917 123.920 C 161.192 124.076,161.764 124.552,162.188 124.977 C 163.063 125.854,163.435 126.167,163.601 126.167 C 163.664 126.167,164.050 126.448,164.458 126.792 C 165.261 127.467,165.937 127.938,166.333 128.097 C 167.040 128.380,167.424 128.626,167.817 129.048 C 168.055 129.304,168.813 129.788,169.500 130.124 C 170.188 130.460,170.927 130.899,171.144 131.098 C 171.517 131.442,172.123 131.743,173.833 132.434 C 174.246 132.601,174.872 132.924,175.225 133.152 C 175.868 133.567,177.381 134.167,177.785 134.167 C 178.074 134.167,180.223 135.182,180.355 135.381 C 180.490 135.583,183.215 136.160,184.056 136.164 C 184.900 136.168,186.637 136.605,188.083 137.179 C 191.251 138.435,207.073 138.420,210.852 137.158 C 211.367 136.986,212.192 136.775,212.686 136.689 C 216.057 136.101,217.857 135.658,218.750 135.197 C 219.881 134.612,221.146 134.167,221.672 134.167 C 222.283 134.167,223.680 133.667,224.060 133.313 C 224.345 133.048,224.921 132.747,225.917 132.342 C 227.432 131.726,227.802 131.531,228.167 131.154 C 228.396 130.917,229.151 130.444,229.845 130.103 C 230.538 129.762,231.304 129.299,231.546 129.075 C 231.788 128.850,232.064 128.667,232.159 128.667 C 232.255 128.667,232.333 128.601,232.333 128.520 C 232.333 128.440,232.565 128.278,232.847 128.161 C 233.130 128.044,233.704 127.629,234.123 127.238 C 234.542 126.848,235.080 126.430,235.318 126.309 C 235.555 126.189,236.016 125.811,236.342 125.470 C 236.668 125.129,237.227 124.617,237.585 124.332 C 238.811 123.358,242.467 119.713,242.732 119.201 C 242.877 118.920,243.146 118.643,243.329 118.585 C 243.695 118.469,244.833 117.162,244.833 116.858 C 244.833 116.753,244.908 116.667,245.000 116.667 C 245.260 116.667,245.718 116.138,246.083 115.416 C 246.267 115.054,246.722 114.456,247.095 114.087 C 247.469 113.718,247.919 113.154,248.095 112.833 C 248.272 112.513,248.727 111.837,249.106 111.333 C 249.485 110.829,249.924 110.117,250.082 109.750 C 250.635 108.467,250.920 107.980,251.375 107.544 C 251.627 107.302,251.833 107.014,251.833 106.904 C 251.833 106.686,252.976 104.303,253.146 104.167 C 253.401 103.962,253.808 103.007,253.999 102.167 C 254.226 101.165,254.908 99.617,255.246 99.337 C 255.363 99.240,255.537 98.843,255.632 98.455 C 256.035 96.818,256.333 95.344,256.333 94.991 C 256.333 94.627,256.672 93.293,257.028 92.250 C 258.175 88.899,258.541 80.897,257.918 72.833 C 257.695 69.957,257.503 68.822,257.142 68.250 C 256.956 67.956,256.471 65.949,256.335 64.917 C 256.051 62.746,255.553 60.975,255.139 60.665 C 254.966 60.535,254.301 58.695,253.996 57.500 C 253.778 56.647,253.336 55.667,253.169 55.667 C 253.031 55.667,252.475 54.394,252.077 53.167 C 251.914 52.663,251.582 51.987,251.339 51.667 C 251.097 51.346,250.642 50.575,250.330 49.954 C 250.017 49.333,249.483 48.536,249.144 48.183 C 248.623 47.641,247.833 46.273,247.833 45.913 C 247.833 45.855,247.608 45.583,247.333 45.308 C 247.058 45.033,246.833 44.757,246.833 44.696 C 246.833 44.634,246.589 44.309,246.292 43.973 C 245.481 43.060,245.149 42.666,244.418 41.750 C 244.053 41.292,243.434 40.611,243.043 40.238 C 242.653 39.865,242.333 39.472,242.333 39.363 C 242.333 39.255,242.270 39.167,242.193 39.167 C 242.116 39.167,241.967 38.977,241.862 38.745 C 241.756 38.514,241.538 38.277,241.376 38.220 C 241.039 38.100,239.833 36.879,239.833 36.657 C 239.833 36.575,239.602 36.389,239.320 36.243 C 239.038 36.097,238.444 35.613,238.000 35.167 C 237.556 34.721,236.887 34.153,236.513 33.906 C 236.139 33.658,235.833 33.391,235.833 33.311 C 235.833 33.232,235.762 33.167,235.675 33.167 C 235.588 33.167,235.307 32.971,235.050 32.732 C 234.793 32.492,234.433 32.226,234.250 32.141 C 233.491 31.787,233.048 31.481,232.417 30.871 C 232.050 30.518,231.412 30.088,231.000 29.916 C 230.588 29.745,230.132 29.506,229.987 29.385 C 229.842 29.265,229.644 29.167,229.546 29.167 C 229.449 29.167,229.331 29.066,229.283 28.944 C 229.199 28.724,227.441 27.797,226.708 27.586 C 226.502 27.526,226.333 27.408,226.333 27.322 C 226.333 27.237,226.262 27.167,226.175 27.167 C 226.088 27.167,225.813 26.977,225.563 26.746 C 225.314 26.515,224.916 26.286,224.680 26.238 C 223.184 25.936,221.600 25.320,221.250 24.905 C 220.987 24.593,219.718 24.201,218.000 23.901 C 216.849 23.700,216.221 23.493,215.700 23.145 C 215.306 22.882,214.834 22.667,214.651 22.667 C 214.468 22.667,213.853 22.560,213.284 22.430 C 212.200 22.181,209.505 21.846,205.167 21.420 C 202.485 21.157,198.722 21.125,196.417 21.346 M203.833 33.262 C 204.338 33.403,205.350 33.582,206.083 33.659 C 209.580 34.026,211.058 34.340,212.448 35.009 C 213.199 35.371,213.920 35.667,214.051 35.667 C 214.707 35.667,217.624 36.751,218.034 37.147 C 218.476 37.574,218.981 37.804,220.833 38.424 C 221.337 38.592,221.937 38.906,222.166 39.120 C 222.396 39.335,222.752 39.554,222.958 39.607 C 223.165 39.660,223.333 39.755,223.333 39.818 C 223.333 39.881,223.783 40.219,224.333 40.570 C 224.883 40.920,225.333 41.274,225.333 41.356 C 225.333 41.439,225.896 41.773,226.583 42.099 C 227.271 42.426,227.833 42.774,227.833 42.873 C 227.833 43.083,228.821 44.000,229.047 44.000 C 229.131 44.000,230.048 44.844,231.085 45.875 C 233.191 47.970,233.412 48.167,233.660 48.167 C 233.755 48.167,233.833 48.279,233.833 48.417 C 233.833 48.554,233.907 48.667,233.997 48.667 C 234.087 48.667,234.204 48.842,234.258 49.057 C 234.312 49.272,234.648 49.689,235.005 49.984 C 235.361 50.279,235.817 50.848,236.017 51.248 C 236.217 51.648,236.676 52.256,237.038 52.599 C 237.400 52.942,237.766 53.379,237.850 53.570 C 238.109 54.153,238.681 55.064,239.016 55.427 C 239.190 55.617,239.333 55.854,239.333 55.955 C 239.333 56.056,239.399 56.164,239.479 56.194 C 239.559 56.225,239.824 56.663,240.069 57.167 C 240.537 58.129,240.655 58.336,241.352 59.417 C 241.589 59.783,241.914 60.533,242.075 61.083 C 242.236 61.633,242.479 62.308,242.616 62.583 C 243.047 63.450,243.410 64.070,243.615 64.291 C 243.724 64.408,243.859 64.859,243.915 65.294 C 243.971 65.728,244.088 66.398,244.175 66.782 C 244.262 67.166,244.333 67.663,244.333 67.886 C 244.333 68.108,244.549 68.806,244.812 69.437 C 245.507 71.099,245.664 71.805,245.941 74.500 C 246.292 77.929,245.970 87.651,245.454 89.188 C 245.196 89.955,245.131 90.103,244.607 91.109 C 244.457 91.398,244.333 91.836,244.333 92.082 C 244.333 93.151,243.572 95.580,242.888 96.695 C 242.681 97.032,242.355 97.782,242.162 98.362 C 241.969 98.942,241.667 99.722,241.489 100.094 C 241.312 100.467,241.167 100.827,241.167 100.893 C 241.167 100.960,240.988 101.208,240.769 101.444 C 240.550 101.680,240.200 102.276,239.992 102.770 C 239.783 103.263,239.550 103.667,239.473 103.667 C 239.396 103.667,239.333 103.739,239.333 103.828 C 239.333 103.916,239.115 104.212,238.847 104.486 C 238.580 104.759,238.312 105.137,238.253 105.325 C 238.193 105.513,238.080 105.667,238.002 105.667 C 237.924 105.667,237.813 105.881,237.755 106.142 C 237.698 106.403,237.243 107.097,236.744 107.684 C 236.246 108.270,235.837 108.806,235.836 108.875 C 235.833 109.013,235.214 109.667,235.086 109.667 C 234.924 109.667,233.833 110.811,233.833 110.981 C 233.833 111.077,233.506 111.402,233.106 111.703 C 232.706 112.004,232.182 112.523,231.941 112.857 C 231.701 113.191,231.184 113.630,230.794 113.834 C 230.403 114.037,229.816 114.484,229.489 114.827 C 229.161 115.170,228.543 115.656,228.114 115.908 C 227.684 116.159,227.333 116.433,227.333 116.516 C 227.333 116.599,227.221 116.667,227.083 116.667 C 226.946 116.667,226.833 116.731,226.833 116.809 C 226.833 116.983,225.038 118.166,224.773 118.167 C 224.669 118.168,224.287 118.441,223.924 118.774 C 223.562 119.106,222.999 119.484,222.674 119.614 C 220.991 120.282,220.349 120.622,219.788 121.142 C 219.357 121.541,218.603 121.828,217.147 122.148 C 216.816 122.221,216.216 122.514,215.814 122.799 C 214.974 123.396,213.245 123.892,211.125 124.146 C 210.324 124.243,209.522 124.399,209.345 124.494 C 209.167 124.589,208.795 124.667,208.517 124.667 C 208.239 124.667,207.765 124.771,207.464 124.899 C 205.765 125.620,205.007 125.717,200.500 125.796 C 194.817 125.895,190.979 125.546,190.301 124.867 C 190.190 124.757,189.980 124.667,189.833 124.667 C 189.687 124.667,189.490 124.590,189.396 124.496 C 189.301 124.401,188.818 124.285,188.321 124.236 C 186.598 124.067,184.205 123.403,183.833 122.991 C 183.635 122.771,182.355 122.199,181.827 122.094 C 180.711 121.872,178.833 121.072,178.833 120.818 C 178.833 120.735,178.721 120.667,178.583 120.667 C 178.446 120.667,178.333 120.593,178.333 120.503 C 178.333 120.413,178.127 120.291,177.875 120.231 C 177.210 120.072,176.517 119.669,175.679 118.953 C 174.992 118.367,173.701 117.674,173.270 117.661 C 173.063 117.655,172.333 117.087,172.333 116.932 C 172.333 116.761,171.758 116.260,171.272 116.006 C 171.015 115.871,170.504 115.403,170.137 114.964 C 169.769 114.525,169.361 114.167,169.228 114.167 C 168.994 114.167,164.333 109.659,164.333 109.432 C 164.333 109.264,164.004 108.870,163.150 108.016 C 162.728 107.595,162.226 106.912,162.035 106.500 C 161.844 106.087,161.498 105.535,161.266 105.271 C 161.033 105.008,160.798 104.652,160.744 104.480 C 160.689 104.307,160.574 104.167,160.489 104.167 C 160.403 104.167,160.333 104.087,160.333 103.990 C 160.333 103.715,159.276 102.167,159.086 102.165 C 158.872 102.162,158.453 101.216,158.080 99.892 C 157.921 99.329,157.609 98.671,157.386 98.431 C 156.921 97.930,156.342 96.734,156.337 96.265 C 156.330 95.638,155.418 92.872,155.151 92.667 C 154.049 91.818,153.111 79.308,153.801 74.667 C 153.917 73.887,154.115 72.344,154.241 71.237 C 154.391 69.926,154.588 68.996,154.807 68.570 C 155.678 66.874,155.920 66.132,156.320 63.917 C 156.460 63.144,156.935 62.167,157.171 62.167 C 157.260 62.167,157.333 62.054,157.333 61.917 C 157.333 61.779,157.395 61.667,157.469 61.667 C 157.646 61.667,158.333 60.009,158.334 59.580 C 158.336 59.220,158.700 58.621,159.302 57.988 C 159.515 57.766,159.886 57.152,160.129 56.625 C 160.371 56.098,160.629 55.667,160.701 55.667 C 160.774 55.667,160.833 55.566,160.833 55.442 C 160.833 55.319,160.989 55.077,161.180 54.904 C 161.371 54.732,161.727 54.178,161.972 53.674 C 162.377 52.838,162.872 52.167,163.083 52.167 C 163.243 52.167,163.752 51.558,164.068 50.989 C 164.242 50.674,164.711 50.099,165.109 49.711 C 165.508 49.323,165.833 48.963,165.833 48.912 C 165.833 48.816,166.160 48.500,167.233 47.556 C 167.563 47.266,167.833 46.985,167.833 46.931 C 167.833 46.777,168.484 46.167,168.649 46.167 C 168.731 46.167,168.841 46.054,168.894 45.917 C 168.946 45.779,169.103 45.667,169.241 45.667 C 169.379 45.667,169.625 45.460,169.786 45.208 C 170.179 44.597,170.484 44.295,171.083 43.923 C 171.358 43.753,171.834 43.325,172.140 42.971 C 172.446 42.618,173.090 42.143,173.572 41.915 C 174.054 41.687,174.583 41.352,174.747 41.170 C 174.912 40.988,175.674 40.523,176.440 40.136 C 177.206 39.749,177.833 39.373,177.833 39.300 C 177.833 39.042,179.224 38.167,179.634 38.167 C 180.138 38.167,181.616 37.485,182.101 37.029 C 182.433 36.717,182.770 36.598,185.310 35.896 C 185.892 35.735,186.530 35.477,186.726 35.323 C 187.391 34.803,189.466 34.167,190.499 34.167 C 191.037 34.167,192.364 34.017,193.447 33.834 C 194.530 33.651,195.867 33.500,196.417 33.498 C 196.967 33.495,197.792 33.389,198.250 33.262 C 199.419 32.936,202.676 32.936,203.833 33.262 M198.500 38.917 C 198.271 39.048,197.888 39.158,197.650 39.161 C 196.649 39.174,195.333 40.701,195.333 41.850 C 195.333 42.095,195.226 42.660,195.096 43.106 C 194.373 45.572,194.324 46.039,194.165 52.000 C 193.903 61.803,193.666 65.170,193.090 67.250 C 192.626 68.924,192.460 69.897,192.325 71.721 C 192.249 72.745,192.110 73.921,192.017 74.333 C 191.924 74.746,191.845 75.406,191.841 75.801 C 191.833 76.525,191.328 77.863,190.899 78.291 C 190.771 78.419,190.667 78.668,190.667 78.845 C 190.667 79.022,190.592 79.167,190.500 79.167 C 190.408 79.167,190.333 79.279,190.333 79.417 C 190.333 79.554,190.267 79.667,190.187 79.667 C 190.106 79.667,189.947 79.892,189.833 80.167 C 189.719 80.442,189.560 80.667,189.480 80.667 C 189.399 80.667,189.333 80.768,189.333 80.892 C 189.333 81.016,189.118 81.282,188.855 81.483 C 188.592 81.685,188.236 82.122,188.063 82.456 C 187.731 83.098,187.251 83.667,187.040 83.667 C 186.834 83.667,186.115 84.392,185.667 85.051 C 185.438 85.388,185.182 85.665,185.099 85.666 C 184.844 85.667,183.834 86.505,183.830 86.717 C 183.827 86.966,183.265 87.490,182.500 87.960 C 182.179 88.157,181.767 88.551,181.583 88.837 C 181.400 89.123,181.044 89.466,180.792 89.599 C 180.540 89.733,180.333 89.915,180.333 90.004 C 180.333 90.094,180.259 90.167,180.168 90.167 C 180.077 90.167,179.271 90.883,178.376 91.760 C 177.482 92.636,176.544 93.477,176.292 93.629 C 176.040 93.781,175.833 93.964,175.833 94.036 C 175.833 94.108,175.763 94.167,175.677 94.167 C 175.591 94.167,175.272 94.398,174.969 94.681 C 174.665 94.963,174.083 95.470,173.676 95.806 C 171.777 97.371,168.257 101.266,167.806 102.301 C 166.954 104.254,167.463 106.496,169.127 108.128 C 169.516 108.509,169.833 108.883,169.833 108.961 C 169.833 110.495,173.495 110.530,175.118 109.011 C 175.320 108.822,175.530 108.667,175.583 108.667 C 175.724 108.667,176.740 107.939,176.806 107.792 C 176.836 107.723,176.937 107.667,177.029 107.667 C 177.121 107.667,177.582 107.329,178.054 106.917 C 178.525 106.504,178.995 106.167,179.097 106.167 C 179.200 106.167,179.633 105.788,180.060 105.324 C 180.486 104.861,181.079 104.379,181.376 104.254 C 181.673 104.128,182.213 103.719,182.575 103.346 C 182.938 102.972,183.319 102.667,183.422 102.667 C 183.525 102.667,184.054 102.270,184.597 101.785 C 185.641 100.852,187.351 99.667,187.653 99.667 C 187.752 99.667,187.834 99.610,187.834 99.542 C 187.836 99.299,188.952 98.204,189.315 98.089 C 189.517 98.025,190.027 97.637,190.449 97.227 C 190.871 96.817,191.495 96.340,191.835 96.166 C 192.174 95.993,192.895 95.472,193.435 95.010 C 193.975 94.548,194.510 94.169,194.625 94.168 C 194.740 94.167,194.833 94.099,194.833 94.016 C 194.833 93.934,195.040 93.793,195.292 93.705 C 195.544 93.616,195.938 93.357,196.167 93.128 C 196.657 92.640,197.526 92.169,197.950 92.161 C 198.115 92.158,198.396 92.046,198.574 91.911 C 198.751 91.777,199.027 91.667,199.187 91.667 C 199.346 91.667,199.577 91.573,199.699 91.458 C 200.151 91.037,200.947 90.700,202.167 90.415 C 204.282 89.920,204.737 89.683,206.649 88.084 C 207.344 87.502,207.746 87.023,208.080 86.377 C 208.259 86.032,208.715 85.262,209.094 84.667 C 209.972 83.288,210.266 81.646,210.107 79.020 C 209.969 76.748,209.898 76.463,209.328 75.880 C 208.660 75.196,208.098 73.601,207.844 71.667 C 207.644 70.141,207.325 68.674,207.060 68.058 C 206.935 67.769,206.831 67.094,206.828 66.558 C 206.825 66.022,206.745 65.021,206.650 64.333 C 206.480 63.097,206.352 60.012,206.007 48.833 C 205.735 40.011,205.427 39.168,202.480 39.166 C 201.804 39.165,200.987 39.097,200.667 39.014 C 199.461 38.703,198.917 38.679,198.500 38.917 " stroke="none" fill="#1c242c" fill-rule="evenodd"></path><path id="path7" d="M10.167 0.523 C 10.167 1.024,9.545 1.833,9.159 1.833 C 8.963 1.833,4.278 6.500,4.376 6.598 C 4.415 6.637,5.465 5.656,6.709 4.418 C 7.953 3.180,9.035 2.167,9.114 2.167 C 9.585 2.167,10.500 1.113,10.500 0.571 C 10.500 0.257,10.425 0.000,10.333 0.000 C 10.242 0.000,10.167 0.235,10.167 0.523 M390.693 0.520 C 390.669 1.062,390.801 1.262,392.000 2.500 C 392.733 3.257,393.333 3.897,393.333 3.922 C 393.333 3.991,394.348 5.147,394.934 5.745 C 395.219 6.036,395.724 6.700,396.057 7.220 C 396.612 8.088,397.122 8.513,396.894 7.917 C 396.841 7.779,396.738 7.667,396.665 7.667 C 396.592 7.667,396.345 7.348,396.116 6.958 C 395.887 6.569,395.411 5.954,395.058 5.593 C 394.705 5.231,394.204 4.669,393.944 4.343 C 393.684 4.018,392.883 3.136,392.163 2.383 C 391.185 1.359,390.839 0.877,390.788 0.466 L 390.720 -0.083 390.693 0.520 M4.031 7.036 C 3.922 7.145,3.833 7.331,3.833 7.450 C 3.833 7.569,3.751 7.667,3.650 7.667 C 3.438 7.667,2.333 8.733,2.333 8.937 C 2.333 9.013,2.554 8.833,2.824 8.537 C 3.094 8.242,3.389 8.000,3.479 8.000 C 3.668 8.000,4.406 7.017,4.299 6.910 C 4.260 6.871,4.139 6.928,4.031 7.036 M397.833 9.526 C 397.833 9.668,398.076 10.113,398.373 10.517 L 398.912 11.250 398.973 17.208 L 399.034 23.167 399.517 23.167 L 400.000 23.167 400.000 17.083 L 400.000 11.000 399.529 11.000 C 399.082 11.000,398.340 10.427,398.328 10.073 C 398.318 9.775,397.833 9.241,397.833 9.526 M2.126 9.754 C 1.751 11.005,1.354 12.513,1.261 13.042 C 1.159 13.622,1.111 13.667,0.576 13.667 C 0.004 13.667,0.000 13.673,0.000 14.417 C 0.000 15.493,1.087 15.603,1.244 14.542 C 1.412 13.415,1.850 11.432,2.110 10.629 C 2.249 10.196,2.333 9.748,2.294 9.633 C 2.253 9.510,2.185 9.559,2.126 9.754 M398.963 129.125 C 398.919 148.184,398.901 149.279,398.615 149.803 C 398.449 150.107,398.339 150.520,398.370 150.720 C 398.411 150.983,398.509 150.843,398.726 150.208 C 398.997 149.421,399.076 149.333,399.513 149.333 L 400.000 149.333 400.000 129.167 L 400.000 109.000 399.505 109.000 L 399.010 109.000 398.963 129.125 M0.000 148.750 C 0.000 149.303,0.029 149.333,0.572 149.333 C 1.195 149.333,1.708 149.859,1.924 150.718 C 2.013 151.073,2.333 151.376,2.333 151.105 C 2.333 150.877,1.624 149.506,1.419 149.335 C 1.280 149.220,1.167 148.910,1.167 148.646 C 1.167 148.209,1.115 148.167,0.583 148.167 C 0.028 148.167,0.000 148.194,0.000 148.750 M397.667 152.000 C 397.452 152.458,397.311 152.867,397.353 152.909 C 397.395 152.951,397.627 152.576,397.869 152.076 C 398.111 151.576,398.253 151.167,398.183 151.167 C 398.114 151.167,397.881 151.541,397.667 152.000 M2.333 151.402 C 2.333 151.521,2.966 152.167,3.083 152.167 C 3.200 152.167,3.833 152.812,3.833 152.931 C 3.833 152.985,4.302 153.503,4.875 154.082 C 5.448 154.660,6.479 155.750,7.167 156.502 C 7.854 157.255,8.660 158.135,8.958 158.459 C 9.306 158.836,9.500 159.217,9.500 159.523 C 9.500 159.785,9.575 160.000,9.667 160.000 C 10.152 160.000,9.803 158.958,9.083 158.259 C 8.671 157.858,8.333 157.490,8.333 157.442 C 8.333 157.394,7.468 156.481,6.410 155.413 C 5.351 154.345,4.291 153.178,4.054 152.819 C 3.817 152.460,3.563 152.167,3.491 152.167 C 3.418 152.167,3.128 151.972,2.846 151.735 C 2.564 151.498,2.333 151.348,2.333 151.402 M396.079 153.912 C 395.669 154.322,395.333 154.764,395.333 154.894 C 395.333 155.024,395.015 155.282,394.625 155.469 C 394.235 155.655,393.675 156.032,393.380 156.307 C 393.085 156.581,392.503 157.050,392.088 157.348 C 391.673 157.646,391.333 157.944,391.333 158.010 C 391.333 158.076,391.149 158.177,390.924 158.233 C 389.708 158.539,388.599 160.000,389.583 160.000 C 389.751 160.000,389.833 159.833,389.833 159.494 C 389.833 159.058,389.932 158.945,390.542 158.679 C 390.931 158.509,391.416 158.212,391.618 158.018 C 391.820 157.825,392.027 157.667,392.076 157.667 C 392.126 157.667,392.305 157.535,392.475 157.375 C 393.335 156.561,394.309 155.795,394.810 155.538 C 395.119 155.380,395.494 155.031,395.644 154.763 C 395.967 154.185,396.442 153.667,396.646 153.667 C 396.727 153.667,396.886 153.554,397.000 153.417 C 397.486 152.831,396.781 153.210,396.079 153.912 " stroke="none" fill="#6c7474" fill-rule="evenodd"></path><path id="path8" d="M11.500 0.518 C 11.500 1.368,10.210 2.663,9.361 2.666 C 9.081 2.666,8.918 2.808,8.782 3.167 C 8.679 3.442,8.535 3.667,8.463 3.667 C 8.392 3.667,8.333 3.762,8.333 3.879 C 8.333 3.996,7.999 4.240,7.591 4.421 C 7.041 4.665,6.775 4.912,6.566 5.375 C 6.410 5.718,6.051 6.148,5.767 6.330 C 5.327 6.611,5.302 6.661,5.596 6.664 C 6.030 6.667,6.644 6.028,6.811 5.397 C 6.906 5.039,7.096 4.864,7.556 4.711 C 8.335 4.453,8.785 4.034,8.859 3.500 C 8.905 3.170,9.080 3.029,9.706 2.821 C 10.140 2.677,10.721 2.359,10.996 2.113 C 11.272 1.868,11.546 1.667,11.605 1.667 C 11.850 1.667,12.156 1.048,12.161 0.542 C 12.166 0.109,12.099 0.000,11.833 0.000 C 11.572 0.000,11.500 0.111,11.500 0.518 M389.333 0.516 C 389.333 1.380,389.794 2.118,390.566 2.492 C 391.073 2.737,391.349 3.013,391.556 3.483 C 391.847 4.143,392.337 4.579,392.913 4.690 C 393.101 4.726,393.283 4.958,393.362 5.265 C 393.540 5.950,394.225 6.667,394.700 6.666 C 395.046 6.665,395.030 6.633,394.538 6.333 C 394.237 6.150,393.914 5.794,393.819 5.542 C 393.637 5.061,392.868 4.167,392.635 4.167 C 392.466 4.167,391.834 3.544,391.833 3.375 C 391.831 3.187,390.840 2.167,390.658 2.167 C 390.281 2.167,389.783 1.413,389.705 0.727 C 389.612 -0.104,389.333 -0.261,389.333 0.516 M4.686 7.362 C 4.675 7.516,4.428 7.880,4.136 8.172 C 3.744 8.564,3.684 8.687,3.910 8.643 C 4.332 8.560,4.883 7.776,4.786 7.397 C 4.721 7.143,4.702 7.136,4.686 7.362 M395.346 7.464 C 395.326 8.043,395.782 8.610,396.497 8.896 C 396.929 9.069,397.166 9.280,397.215 9.535 C 397.278 9.864,397.291 9.852,397.311 9.450 C 397.329 9.067,397.231 8.940,396.764 8.745 C 396.234 8.524,395.674 7.921,395.454 7.333 C 395.392 7.169,395.355 7.214,395.346 7.464 M2.625 10.667 C 1.672 15.211,1.451 42.082,1.826 107.917 C 2.034 144.476,2.104 148.768,2.506 149.899 C 2.744 150.568,2.812 150.654,2.821 150.303 C 2.828 150.056,2.753 149.644,2.655 149.386 C 2.120 147.979,2.140 18.559,2.676 12.923 C 2.771 11.919,2.826 10.869,2.798 10.590 L 2.747 10.083 2.625 10.667 M397.333 10.307 C 397.333 10.425,397.409 10.663,397.501 10.836 C 397.733 11.268,397.733 148.194,397.501 149.487 C 397.410 149.998,397.294 150.698,397.243 151.042 C 397.187 151.425,397.061 151.667,396.917 151.667 C 396.606 151.667,395.833 152.448,395.833 152.763 C 395.833 152.899,395.721 153.054,395.583 153.106 C 395.446 153.159,395.329 153.288,395.323 153.393 C 395.318 153.498,394.999 153.811,394.616 154.090 C 393.888 154.618,393.611 155.167,394.071 155.167 C 394.215 155.167,394.333 155.103,394.333 155.025 C 394.333 154.948,394.969 154.216,395.746 153.400 C 398.227 150.796,397.961 155.091,398.123 115.083 C 398.350 58.955,398.121 11.217,397.622 10.505 C 397.463 10.278,397.333 10.189,397.333 10.307 M3.000 151.241 C 3.000 151.301,3.261 151.459,3.580 151.593 C 3.947 151.746,4.280 152.063,4.489 152.459 C 4.803 153.053,4.819 153.062,4.826 152.640 C 4.833 152.224,4.043 151.333,3.668 151.333 C 3.590 151.333,3.409 151.288,3.264 151.232 C 3.119 151.177,3.000 151.180,3.000 151.241 M4.909 153.321 C 4.962 153.406,5.268 153.562,5.589 153.668 C 5.991 153.801,6.274 154.052,6.496 154.472 C 6.798 155.044,6.819 155.056,6.826 154.654 C 6.830 154.417,6.666 154.068,6.458 153.873 C 5.922 153.371,4.663 152.922,4.909 153.321 M7.074 155.422 C 7.251 155.557,7.495 155.667,7.614 155.667 C 7.734 155.667,8.057 155.978,8.332 156.358 C 8.715 156.886,8.833 156.971,8.833 156.716 C 8.833 156.299,8.155 155.551,7.579 155.332 C 6.952 155.093,6.699 155.138,7.074 155.422 M393.242 155.313 C 393.155 155.394,392.806 155.548,392.467 155.656 C 392.011 155.802,391.774 156.015,391.554 156.476 C 391.272 157.066,391.188 157.114,389.920 157.406 C 387.890 157.874,387.167 158.448,387.167 159.591 C 387.167 159.889,387.257 160.000,387.500 160.000 C 387.757 160.000,387.833 159.889,387.833 159.512 C 387.833 158.766,389.135 157.844,390.567 157.575 C 391.197 157.457,391.751 157.021,391.911 156.517 C 391.969 156.336,392.349 156.027,392.757 155.830 C 393.165 155.633,393.540 155.403,393.592 155.319 C 393.712 155.124,393.450 155.120,393.242 155.313 M9.074 157.422 C 9.251 157.557,9.477 157.667,9.575 157.667 C 9.928 157.667,10.585 158.680,10.683 159.375 L 10.783 160.083 10.808 159.248 C 10.836 158.333,10.383 157.637,9.556 157.323 C 8.949 157.092,8.704 157.142,9.074 157.422 " stroke="none" fill="#403c3c" fill-rule="evenodd"></path></g></svg>